<svg width="501" height="327" viewBox="0 0 501 327" fill="none" xmlns="http://www.w3.org/2000/svg">
<g clip-path="url(#clip0_188_128)">
<path d="M438.556 168.309C446.67 168.309 453.248 161.73 453.248 153.616C453.248 145.502 446.67 138.924 438.556 138.924C430.442 138.924 423.864 145.502 423.864 153.616C423.864 161.73 430.442 168.309 438.556 168.309Z" stroke="#F2C52B" stroke-width="9.93853" stroke-miterlimit="10"/>
<path d="M63.1886 285.646C71.303 285.646 77.881 279.068 77.881 270.953C77.881 262.839 71.303 256.261 63.1886 256.261C55.0741 256.261 48.4961 262.839 48.4961 270.953C48.4961 279.068 55.0741 285.646 63.1886 285.646Z" stroke="#F2C52B" stroke-width="9.93853" stroke-miterlimit="10"/>
<path d="M468.667 196.908C466.978 176.947 451.07 157.906 427.739 143.39C414.085 134.896 397.831 127.524 380.217 121.867C361.944 115.956 342.067 109.412 320.391 108.711C315.024 108.479 309.648 108.801 304.348 109.674C284.378 113.203 324.934 123.944 330.245 125.523C273.738 113.735 215.281 101.787 154.417 104.025C142.68 104.447 130.537 105.494 120.413 109.133C110.289 112.773 102.681 119.595 104.614 126.207C106.21 131.67 113.531 137.682 107.257 142.073C105.467 143.331 102.858 144.1 100.3 144.775C87.1608 148.22 72.8737 150.146 60.4864 154.46C41.3017 161.148 28.6443 173.037 23.1895 185.45C17.7347 197.862 18.7817 210.782 21.9482 223.228C27.9012 246.685 41.6986 269.839 67.9255 287.723C105.383 313.283 165.031 325.636 224.139 326.861C295.667 328.347 372.229 313.164 417.505 280.191C424.26 275.302 430.331 269.906 432.527 263.877C434.722 257.848 432.299 251.059 424.235 247.251C422.065 246.229 419.278 245.148 419.413 243.502C419.591 241.273 424.564 240.437 428.372 239.905C453.307 236.426 466.725 219.969 468.456 205.344C468.813 202.546 468.884 199.72 468.667 196.908Z" fill="#F2C52B"/>
<path d="M113.607 152.594L111.978 158.969L83.3359 270.962L80.8787 280.571H413.629L411.172 270.962L382.539 158.969L380.918 152.594H113.607ZM151.327 210.359H343.182L352.892 269.121H141.616L151.327 210.359ZM336.578 160.219H381.179L408.673 269.146H354.919L336.578 160.219ZM342.928 208.848H151.58L159.618 160.219H334.898L342.928 208.848ZM139.589 269.121H85.8353L113.337 160.194H157.93L139.589 269.121ZM411.088 278.679H83.4625L85.4131 270.962H409.137L411.088 278.679ZM336.367 158.969H113.65L114.95 153.819H379.558L380.858 158.969H336.367Z" fill="white"/>
<path d="M246.946 152.611C246.722 152.611 246.507 152.522 246.349 152.364C246.191 152.205 246.102 151.991 246.102 151.767V137.623C246.102 137.39 246.194 137.167 246.359 137.002C246.523 136.838 246.747 136.745 246.98 136.745C247.213 136.745 247.436 136.838 247.601 137.002C247.765 137.167 247.858 137.39 247.858 137.623V151.733C247.863 151.853 247.843 151.972 247.798 152.083C247.754 152.194 247.686 152.295 247.6 152.378C247.514 152.461 247.411 152.525 247.298 152.565C247.185 152.605 247.065 152.621 246.946 152.611Z" fill="white" stroke="#263238" stroke-width="0.624852" stroke-linecap="round" stroke-linejoin="round"/>
<path d="M246.946 137.623L247.25 257.595" stroke="#263238" stroke-width="0.624852" stroke-linecap="round" stroke-linejoin="round"/>
<path d="M247.25 284.202C247.026 284.202 246.811 284.113 246.653 283.954C246.494 283.796 246.405 283.581 246.405 283.357V258.481C246.405 258.249 246.498 258.025 246.662 257.86C246.827 257.696 247.051 257.603 247.283 257.603C247.516 257.603 247.74 257.696 247.904 257.86C248.069 258.025 248.162 258.249 248.162 258.481V283.324C248.167 283.443 248.146 283.562 248.102 283.674C248.058 283.785 247.99 283.885 247.904 283.968C247.817 284.051 247.715 284.115 247.602 284.155C247.489 284.196 247.369 284.211 247.25 284.202Z" fill="white" stroke="#263238" stroke-width="0.624852" stroke-linecap="round" stroke-linejoin="round"/>
<path d="M230.041 127.963H90.8171V132.515H230.041V127.963Z" fill="#263238" stroke="#263238" stroke-width="0.624852" stroke-linecap="round" stroke-linejoin="round"/>
<path d="M403.488 127.963H264.264V132.515H403.488V127.963Z" fill="#263238" stroke="#263238" stroke-width="0.624852" stroke-linecap="round" stroke-linejoin="round"/>
<path d="M230.041 71.3635H90.8171V75.9148H230.041V71.3635Z" fill="#263238" stroke="#263238" stroke-width="0.624852" stroke-linecap="round" stroke-linejoin="round"/>
<path d="M403.488 71.3635H229.636V75.9148H403.488V71.3635Z" fill="#263238" stroke="#263238" stroke-width="0.624852" stroke-linecap="round" stroke-linejoin="round"/>
<path d="M403.488 71.3635H90.5552V132.236H403.488V71.3635Z" stroke="#263238" stroke-width="0.624852" stroke-linecap="round" stroke-linejoin="round"/>
<path d="M193.124 71.3466V131.738" stroke="#263238" stroke-width="0.624852" stroke-linecap="round" stroke-linejoin="round"/>
<path d="M158.774 71.3466V131.738" stroke="#263238" stroke-width="0.624852" stroke-linecap="round" stroke-linejoin="round"/>
<path d="M124.416 71.3466V131.738" stroke="#263238" stroke-width="0.624852" stroke-linecap="round" stroke-linejoin="round"/>
<path d="M368.522 71.3466V131.738" stroke="#263238" stroke-width="0.624852" stroke-linecap="round" stroke-linejoin="round"/>
<path d="M334.163 71.3466V131.738" stroke="#263238" stroke-width="0.624852" stroke-linecap="round" stroke-linejoin="round"/>
<path d="M299.813 71.3466V131.738" stroke="#263238" stroke-width="0.624852" stroke-linecap="round" stroke-linejoin="round"/>
<path d="M230.016 71.3466V131.738" stroke="#263238" stroke-width="0.624852" stroke-linecap="round" stroke-linejoin="round"/>
<path d="M264.366 71.3466V131.738" stroke="#263238" stroke-width="0.624852" stroke-linecap="round" stroke-linejoin="round"/>
<path d="M229.965 95.5807H264.104" stroke="#263238" stroke-width="1.883" stroke-linejoin="round"/>
<path d="M90.378 71.3635L88.9172 75.1886L31.9966 224.165V230.118L90.8171 75.9148L90.378 71.3635Z" fill="#263238" stroke="#263238" stroke-width="0.624852" stroke-linecap="round" stroke-linejoin="round"/>
<path d="M31.9966 305.092L89.4492 132.067L90.8171 127.963L31.9966 311.045V305.092Z" fill="#263238" stroke="#263238" stroke-width="0.624852" stroke-linecap="round" stroke-linejoin="round"/>
<path d="M31.9966 224.165L90.378 71.3635L90.3358 132.236L31.9966 311.045V224.165Z" stroke="#263238" stroke-width="0.624852" stroke-linecap="round" stroke-linejoin="round"/>
<path d="M48.4961 261.065V180.839" stroke="#263238" stroke-width="0.624852" stroke-linecap="round" stroke-linejoin="round"/>
<path d="M62.9351 143.627V215.789" stroke="#263238" stroke-width="0.624852" stroke-linecap="round" stroke-linejoin="round"/>
<path d="M78.1006 103.569V170.073" stroke="#263238" stroke-width="0.624852" stroke-linecap="round" stroke-linejoin="round"/>
<path d="M403.488 127.963L461.962 305.092V311.045L403.665 132.236L403.488 127.963Z" fill="#263238" stroke="#263238" stroke-width="0.624852" stroke-linecap="round" stroke-linejoin="round"/>
<path d="M403.488 75.9148L461.962 230.118V224.165L403.623 71.3635L403.488 75.9148Z" fill="#263238" stroke="#263238" stroke-width="0.624852" stroke-linecap="round" stroke-linejoin="round"/>
<path d="M462.004 224.165L403.623 71.3635L403.665 132.236L462.004 311.045V224.165Z" stroke="#263238" stroke-width="0.624852" stroke-linecap="round" stroke-linejoin="round"/>
<path d="M445.497 261.065V180.839" stroke="#263238" stroke-width="0.624852" stroke-linecap="round" stroke-linejoin="round"/>
<path d="M431.058 143.627V215.789" stroke="#263238" stroke-width="0.624852" stroke-linecap="round" stroke-linejoin="round"/>
<path d="M415.884 103.569V170.073" stroke="#263238" stroke-width="0.624852" stroke-linecap="round" stroke-linejoin="round"/>
<path d="M462.005 224.165H31.9966V311.045H462.005V224.165Z" stroke="#263238" stroke-width="0.624852" stroke-linecap="round" stroke-linejoin="round"/>
<path d="M173.348 224.663V310.977" stroke="#263238" stroke-width="0.624852" stroke-linecap="round" stroke-linejoin="round"/>
<path d="M126.256 224.663V310.977" stroke="#263238" stroke-width="0.624852" stroke-linecap="round" stroke-linejoin="round"/>
<path d="M79.1643 224.663V310.977" stroke="#263238" stroke-width="0.624852" stroke-linecap="round" stroke-linejoin="round"/>
<path d="M413.773 224.663V310.977" stroke="#263238" stroke-width="0.624852" stroke-linecap="round" stroke-linejoin="round"/>
<path d="M366.681 224.663V310.977" stroke="#263238" stroke-width="0.624852" stroke-linecap="round" stroke-linejoin="round"/>
<path d="M319.581 224.663V310.977" stroke="#263238" stroke-width="0.624852" stroke-linecap="round" stroke-linejoin="round"/>
<path d="M223.911 224.663V311.374" stroke="#263238" stroke-width="0.624852" stroke-linecap="round" stroke-linejoin="round"/>
<path d="M271.002 224.663V311.374" stroke="#263238" stroke-width="0.624852" stroke-linecap="round" stroke-linejoin="round"/>
<path d="M223.877 259.453H270.91" stroke="#263238" stroke-width="1.883" stroke-linejoin="round"/>
<path d="M224.113 305.092H31.9966V311.045H224.113V305.092Z" fill="#263238" stroke="#263238" stroke-width="0.624852" stroke-linecap="round" stroke-linejoin="round"/>
<path d="M461.963 305.092H270.986V311.045H461.963V305.092Z" fill="#263238" stroke="#263238" stroke-width="0.624852" stroke-linecap="round" stroke-linejoin="round"/>
<path d="M461.962 230.118V224.165H224.299V230.118" fill="#263238"/>
<path d="M461.962 230.118V224.165H224.299V230.118" stroke="#263238" stroke-width="0.624852" stroke-linecap="round" stroke-linejoin="round"/>
<path d="M333.826 141.93L332.821 146.244C332.011 146.845 331.345 147.618 330.87 148.507C330.431 149.639 329.545 152.729 329.545 152.729C329.545 152.729 326.53 154.621 326.969 155.263C327.213 155.722 327.615 156.078 328.101 156.265C328.587 156.451 329.124 156.455 329.612 156.276C330.997 155.769 330.803 154.072 330.803 154.072C330.803 154.072 335.025 149.006 335.337 148.474C335.55 147.975 335.656 147.437 335.65 146.895C335.65 146.895 334.805 141.609 334.957 141.237C335.109 140.866 334.011 141.364 333.826 141.93Z" fill="white" stroke="#263238" stroke-width="0.743068" stroke-miterlimit="10"/>
<path d="M335.59 136.703C334.973 137.578 334.523 138.56 334.265 139.599C333.952 141.111 333.825 141.93 333.825 141.93L334.67 142.174L336.62 136.829C336.62 136.829 336.342 136.112 335.59 136.703Z" fill="white" stroke="#263238" stroke-width="0.743068" stroke-miterlimit="10"/>
<path d="M336.941 164.821C336.941 164.821 336.519 169.888 337.102 172.471C337.684 175.055 339.264 184.876 339.432 185.374C339.497 185.85 339.439 186.336 339.264 186.784C338.389 187.624 337.413 188.353 336.359 188.954C335.109 189.537 332.441 190.364 332.779 191.031C333.116 191.698 334.687 192.196 336.773 191.876C338.858 191.555 340.099 191.209 340.099 191.209C340.099 191.209 342.683 191.707 343.097 189.705C343.511 187.704 342.43 185.382 342.43 184.8C342.43 184.217 342.844 175.233 342.928 174.397C343.013 173.561 343.097 166.24 343.097 166.24L336.941 164.821Z" fill="white" stroke="#263238" stroke-width="0.743068" stroke-miterlimit="10"/>
<path d="M342.641 185.754C342.492 185.965 342.331 186.168 342.16 186.362C341.662 186.944 339.247 186.775 339.247 186.775C338.372 187.616 337.396 188.345 336.342 188.945C335.092 189.528 332.424 190.356 332.762 191.023C333.099 191.69 334.67 192.188 336.756 191.867C338.841 191.546 340.083 191.2 340.083 191.2C340.083 191.2 342.666 191.698 343.08 189.697C343.247 188.366 343.096 187.015 342.641 185.754Z" fill="white" stroke="#263238" stroke-width="0.743068" stroke-miterlimit="10"/>
<path d="M342.008 167.304C342.032 170.091 342.255 172.874 342.675 175.629C343.257 178.205 344.836 183.035 345.664 185.281C346.248 187.313 346.585 189.408 346.669 191.521C346.669 191.521 346.162 193.683 345.664 195.186C345.166 196.689 343.975 197.094 345.081 197.845C346.187 198.597 347.327 198.014 348.163 197.432C349.241 196.603 350.052 195.475 350.494 194.189C350.58 193.49 350.523 192.78 350.325 192.104L349.413 189.942C349.413 189.942 349.16 179.868 348.661 178.458C348.142 177.175 347.779 175.834 347.581 174.464C347.581 173.62 348.425 165.725 348.425 165.725L342.008 167.304Z" fill="white" stroke="#263238" stroke-width="0.743068" stroke-miterlimit="10"/>
<path d="M350.452 194.189C350.538 193.49 350.48 192.78 350.283 192.104L349.438 190.018C349.274 190.173 349.124 190.342 348.991 190.525C348.569 191.107 346.905 190.854 346.905 190.854L346.618 190.93L346.66 191.521C346.66 191.521 346.154 193.683 345.655 195.186C345.157 196.689 343.967 197.094 345.073 197.845C346.179 198.597 347.319 198.014 348.155 197.432C349.22 196.598 350.019 195.471 350.452 194.189Z" fill="white" stroke="#263238" stroke-width="0.743068" stroke-miterlimit="10"/>
<path d="M336.595 158.159L334.408 164.441L336.333 165.395L336.621 166.746C336.621 166.746 337.676 167.126 338.639 167.413C339.523 167.582 340.429 167.616 341.324 167.515L341.712 168.57C341.712 168.57 348.822 166.839 349.878 166.164C350.763 165.438 351.512 164.56 352.09 163.571L350.3 156.816C350.064 156.805 349.829 156.842 349.609 156.925C349.388 157.008 349.186 157.135 349.016 157.298C348.341 157.88 345.36 159.831 342.768 159.603C340.175 159.375 337.001 157.205 337.001 157.205L336.595 158.159Z" fill="#263238" stroke="#263238" stroke-width="0.743068" stroke-miterlimit="10"/>
<path d="M335.59 136.703C335.59 136.703 334.518 140.224 334.645 142.174C334.771 144.125 335.59 145.957 335.962 147.781C336.345 150.215 336.557 152.673 336.595 155.136V158.159C337.268 158.979 338.113 159.641 339.07 160.098C340.028 160.554 341.074 160.795 342.134 160.802C345.909 160.929 349.996 157.424 350.308 156.842C350.621 156.259 350.874 156.276 350.435 154.95C349.797 153.4 349.041 151.901 348.172 150.466C347.765 149.963 347.524 149.347 347.479 148.702C347.479 148.009 348.552 142.099 348.045 139.768C347.539 137.437 346.162 137.066 346.036 136.753C345.909 136.441 338.985 133.435 335.59 136.703Z" fill="white" stroke="#263238" stroke-width="0.743068" stroke-miterlimit="10"/>
<path d="M337.288 136.889C337.288 136.889 337.786 139.599 338.546 139.422C339.698 138.834 340.792 138.138 341.814 137.345C342.39 136.275 342.876 135.16 343.266 134.009C343.37 133.648 343.386 133.268 343.314 132.9C343.242 132.531 343.084 132.185 342.852 131.89C342.54 131.696 341.535 132.143 340.209 132.835C338.883 133.528 337.38 134.153 337.38 134.153L337.288 136.889Z" fill="white" stroke="#263238" stroke-width="0.743068" stroke-miterlimit="10"/>
<path d="M338.732 124.29C338.732 124.29 336.156 125.236 336.089 126.426C336.021 127.617 336.089 128.884 336.089 128.884C335.752 129.981 335.47 131.094 335.244 132.219C335.073 132.74 335.019 133.292 335.085 133.836C335.15 134.38 335.334 134.903 335.624 135.369C335.683 135.808 334.78 136.373 334.864 137.252C334.949 138.13 335.557 138.451 336.317 138.451C337.077 138.451 338.14 135.808 338.2 135.495C338.252 135.261 338.317 135.03 338.394 134.803L342.227 132.852C342.4 133.543 342.334 134.272 342.042 134.921C341.571 135.508 341.267 136.211 341.163 136.956C341.163 137.581 340.226 139.287 341.67 139.658C343.114 140.03 343.747 138.273 344.44 137.522C344.868 137.069 345.455 136.8 346.078 136.77C346.264 136.703 346.922 136.264 347.083 134.879C347.243 133.494 346.137 132.743 346.01 131.729C345.999 130.515 345.808 129.308 345.444 128.149C345.075 127.177 344.566 126.264 343.933 125.439C343.072 124.375 340.809 122.669 338.732 124.29Z" fill="#263238" stroke="#263238" stroke-width="0.743068" stroke-miterlimit="10"/>
<path d="M336.781 126.57C336.285 127.242 336.04 128.067 336.088 128.901C336.01 130.18 336.182 131.462 336.595 132.675C337.034 133.807 337.541 134.693 338.36 134.82C339.179 134.947 341.687 133.308 342.193 132.869C342.484 132.597 342.709 132.262 342.852 131.89C342.852 131.89 343.983 131.256 344.11 130.632C344.237 130.007 344.363 129.5 343.857 129.627C343.486 129.747 343.144 129.943 342.852 130.201C342.419 129.73 342.058 129.198 341.78 128.622C341.653 128.124 341.78 128.183 341.214 127.558C340.672 126.949 339.952 126.526 339.157 126.349C338.361 126.171 337.53 126.249 336.781 126.57Z" fill="white" stroke="#263238" stroke-width="0.743068" stroke-miterlimit="10"/>
<path d="M342.852 140.857L341.375 145.4L346.441 146.16C347.019 144.794 347.482 143.381 347.826 141.938C348.138 140.249 347.952 138.56 346.981 137.91" fill="white"/>
<path d="M342.852 140.857L341.375 145.4L346.441 146.16C347.019 144.794 347.482 143.381 347.826 141.938C348.138 140.249 347.952 138.56 346.981 137.91" stroke="#263238" stroke-width="0.743068" stroke-miterlimit="10"/>
<path d="M317.343 140.731C315.889 141.539 314.689 142.738 313.881 144.193C313.243 145.24 312.965 146.467 313.09 147.687C313.215 148.906 313.736 150.052 314.573 150.948C316.144 152.713 319.167 152.898 320.357 152.839C321.548 152.78 322.815 152.839 323.195 152.839C323.593 152.861 323.991 152.903 324.385 152.966L326.074 150.889C325.862 149.056 325.42 147.257 324.757 145.535C323.625 142.521 322.3 141.136 320.856 140.697C319.724 140.257 318.466 140.27 317.343 140.731Z" fill="white" stroke="#263238" stroke-width="0.743068" stroke-miterlimit="10"/>
<path d="M324.892 148.474C324.654 149.29 324.271 150.057 323.76 150.737C323.369 151.169 322.923 151.55 322.435 151.868L324.579 151.927L325.331 150.922L324.892 148.474Z" fill="white" stroke="#263238" stroke-width="0.743068" stroke-miterlimit="10"/>
<path d="M341.374 145.4L339.618 149.808C339.618 149.808 334.391 151.007 333.074 151.133C331.757 151.26 328.852 151.378 328.852 151.378L326.083 150.88L325.77 151.725C325.77 151.725 323.693 153.109 323.887 153.548C324.081 153.988 324.453 154.393 324.824 154.3L325.204 154.241C325.499 154.597 325.893 154.859 326.336 154.992C327.102 155.097 327.883 155.01 328.607 154.739C329.232 154.494 330.296 153.895 330.296 153.895C330.296 153.895 334.45 153.836 336.08 153.776C337.71 153.717 341.434 153.084 342.126 152.577C342.818 152.071 346.466 146.16 346.466 146.16L341.374 145.4Z" fill="white" stroke="#263238" stroke-width="0.743068" stroke-miterlimit="10"/>
<path d="M140.071 211.178L144.115 218.094C143.159 220.58 142.341 223.117 141.667 225.694C141.244 227.923 141.033 231.756 140.603 232.93C140.172 234.104 139.117 234.838 139.539 236.308C139.961 237.777 140.814 237.996 141.455 237.794C141.932 237.599 142.365 237.312 142.731 236.949L144.757 236.417L145.069 233.335C145.069 233.335 148.447 215.671 148.371 214.607C148.295 213.543 143.583 210.57 143.161 210.461C142.111 210.602 141.076 210.842 140.071 211.178Z" fill="white" stroke="#263238" stroke-width="0.743068" stroke-miterlimit="10"/>
<path d="M143.921 214.497L144.766 222.046C144.15 223.779 143.756 225.584 143.592 227.416C143.592 229.434 143.845 235.725 143.761 236.392C143.676 237.059 142.747 240.251 142.587 241.594C142.427 242.936 143.845 242.936 144.85 243.021C146.236 242.96 147.613 242.765 148.962 242.438C150.381 242.185 151.495 241.847 151.639 240.842C151.782 239.837 151.892 239.753 151.056 239.415C150.22 239.077 146.775 238.326 146.775 238.326L147.282 235.472C147.282 235.472 149.376 228.092 149.714 226.327C150.051 224.562 150.465 220.788 150.634 220.289C150.803 219.791 150.803 214.083 150.803 214.083L143.921 214.497Z" fill="white" stroke="#263238" stroke-width="0.743068" stroke-miterlimit="10"/>
<path d="M151.056 239.415C150.212 239.077 146.775 238.326 146.775 238.326C146.775 238.326 146.446 239.668 146.108 239.837C145.77 240.006 144.512 240.166 144.006 239.584C143.786 239.322 143.499 238.984 143.212 238.697C142.95 239.753 142.671 240.918 142.587 241.594C142.418 242.936 143.845 242.936 144.85 243.021C146.236 242.96 147.613 242.765 148.962 242.438C150.381 242.185 151.495 241.847 151.639 240.842C151.782 239.837 151.892 239.753 151.056 239.415Z" fill="white" stroke="#263238" stroke-width="0.743068" stroke-miterlimit="10"/>
<path d="M135.46 202.177C135.46 202.177 135.629 203.022 136.719 206.349C137.808 209.675 138.779 212.259 139.522 212.58C140.187 212.783 140.89 212.823 141.574 212.698L141.751 214.125C143.247 215.247 145.085 215.814 146.953 215.73C150.153 215.612 151.639 213.897 151.757 213.441C151.875 212.985 151.014 206.526 151.014 204.997C150.903 203.845 150.531 202.733 149.925 201.747L135.46 202.177Z" fill="white" stroke="#263238" stroke-width="0.743068" stroke-miterlimit="10"/>
<path d="M163.688 186.184C163.688 186.184 163.553 185.593 163.03 184.09C162.506 182.587 161.924 178.07 164.339 175.917C166.754 173.763 169.405 173.882 170.688 174.54C171.972 175.199 173.568 178.331 173.044 180.62C172.521 182.908 171.28 184.842 169.574 185.686C167.868 186.531 166.5 186.792 166.374 186.995C166.119 187.209 165.835 187.386 165.529 187.519L164.254 190.55L162.565 189.807L163.612 186.927L163.688 186.184Z" fill="white" stroke="#263238" stroke-width="0.743068" stroke-miterlimit="10"/>
<path d="M164.735 185.196L166.179 186.176L165.065 186.961L164.339 186.64L164.735 185.196Z" fill="white" stroke="#263238" stroke-width="0.743068" stroke-miterlimit="10"/>
<path d="M151.85 183.761C151.85 183.761 154.662 185.07 156.165 185.728C157.817 186.281 159.511 186.697 161.231 186.97C161.868 186.624 162.525 186.317 163.199 186.049C163.393 186.049 165.42 187.096 165.487 187.493C165.555 187.89 165.614 188.405 165.293 188.405C164.913 188.356 164.54 188.269 164.178 188.143C164.178 188.143 163.781 188.405 163.461 188.667C163.233 188.899 163.078 189.193 163.013 189.511C162.428 189.525 161.847 189.607 161.282 189.756C160.564 189.83 159.84 189.686 159.205 189.342C159.205 189.342 156.714 189.342 155.869 189.216C155.025 189.089 153.446 188.819 153.446 188.819L151.85 183.761Z" fill="white" stroke="#263238" stroke-width="0.743068" stroke-miterlimit="10"/>
<path d="M147.121 177.614C146.923 177.142 146.686 176.687 146.412 176.254C145.998 175.604 142.038 174.422 142.038 174.422C142.038 174.422 138.492 174.034 138.255 174.346C137.229 175.621 136.595 177.167 136.431 178.796C136.136 181.456 136.254 190.845 136.254 190.845L135.486 197.82C135.486 197.82 134.363 201.299 134.835 202.186C135.308 203.072 138.264 204.964 140.679 205.082C142.511 205.064 144.329 204.744 146.057 204.136C147.081 203.958 148.088 203.701 149.072 203.368C149.84 203.013 150.313 202.658 150.431 202.067C150.55 201.476 150.077 197.001 150.077 197.001C150.077 197.001 151.318 189.849 151.259 187.485C151.2 185.12 150.55 181.05 149.84 180.105C149.015 179.19 148.105 178.356 147.121 177.614Z" fill="#263238" stroke="#263238" stroke-width="0.743068" stroke-miterlimit="10"/>
<path d="M148.219 164.542C148.219 164.542 148.869 166.924 149.528 167.506C149.746 167.702 149.907 167.952 149.995 168.232C150.083 168.511 150.093 168.809 150.026 169.094C150.137 169.787 150.137 170.494 150.026 171.188C149.815 171.99 148.658 172.497 148.219 172.708C147.826 172.874 147.415 172.996 146.995 173.071L146.412 176.254C145.999 176.282 145.584 176.233 145.188 176.111C144.343 175.891 142.367 175.097 142.367 175.097C142.62 174.495 142.79 173.862 142.874 173.214C142.945 172.065 143.163 170.93 143.524 169.837C143.887 169.187 145.694 167.38 146.488 166.29C146.975 165.625 147.558 165.036 148.219 164.542Z" fill="white" stroke="#263238" stroke-width="0.743068" stroke-miterlimit="10"/>
<path d="M144.419 170.107C144.419 170.107 144.276 171.483 145.069 171.796C145.2 171.861 145.344 171.895 145.49 171.897C145.636 171.898 145.78 171.866 145.912 171.803C146.043 171.741 146.159 171.649 146.25 171.535C146.341 171.421 146.405 171.288 146.437 171.146" fill="white"/>
<path d="M144.419 170.107C144.419 170.107 144.276 171.483 145.069 171.796C145.2 171.861 145.344 171.895 145.49 171.897C145.636 171.898 145.78 171.866 145.912 171.803C146.043 171.741 146.159 171.649 146.25 171.535C146.341 171.421 146.405 171.288 146.437 171.146" stroke="#263238" stroke-width="0.743068" stroke-miterlimit="10"/>
<path d="M148.641 166.442C148.572 167.073 148.303 167.665 147.873 168.131Z" fill="white"/>
<path d="M148.641 166.442C148.572 167.073 148.303 167.665 147.873 168.131" stroke="#263238" stroke-width="0.743068" stroke-miterlimit="10"/>
<path d="M140.696 163.588C140.696 163.588 138.677 165.86 138.424 167.625C138.171 169.389 139.691 171.239 139.691 171.239C139.691 171.239 138.095 173.594 138.255 174.346C138.416 175.097 139.437 175.857 141.633 175.52C143.828 175.182 144.402 170.901 144.318 170.647C144.234 170.394 147.594 167.625 148.185 166.113C148.318 165.858 148.39 165.576 148.396 165.289C148.402 165.001 148.341 164.717 148.22 164.456C148.098 164.196 147.918 163.967 147.694 163.787C147.47 163.607 147.208 163.482 146.927 163.419C145.905 163.082 142.123 161.739 140.696 163.588Z" fill="white" stroke="#263238" stroke-width="0.743068" stroke-miterlimit="10"/>
<path d="M153.632 186.64L155.903 189.174L157.845 190.254C158.555 190.528 159.314 190.655 160.074 190.626L161.316 189.714C161.569 189.549 161.855 189.442 162.154 189.4C162.453 189.357 162.758 189.381 163.047 189.469C163.503 189.553 164.203 189.469 164.288 189.756C164.372 190.043 164.415 190.33 164.288 190.499C164.162 190.639 164.051 190.791 163.959 190.955C163.929 191.653 163.774 192.339 163.503 192.982C163.313 193.258 163.061 193.488 162.769 193.652C162.476 193.816 162.149 193.91 161.814 193.927C161.315 193.916 160.824 193.804 160.37 193.598C160.167 193.471 157.271 193.725 156.148 193.64C155.025 193.556 154.375 193.843 153.75 192.982C152.715 191.815 151.613 190.709 150.448 189.672L153.632 186.64Z" fill="white" stroke="#263238" stroke-width="0.743068" stroke-miterlimit="10"/>
<path d="M147.358 180.155C146.655 180.477 146.044 180.969 145.579 181.587C145.115 182.205 144.812 182.929 144.698 183.693C144.225 186.412 145.053 187.358 145.542 187.713C146.04 187.951 146.586 188.072 147.138 188.067L149.089 190.136C149.089 190.136 151.512 189.486 152.576 188.245C153.163 187.654 153.538 186.885 153.64 186.058L152.281 183.812C152.281 183.812 151.63 181.278 150.271 180.274C149.948 179.982 149.548 179.788 149.119 179.715C148.69 179.642 148.249 179.692 147.848 179.86" fill="#263238"/>
<path d="M147.358 180.155C146.655 180.477 146.044 180.969 145.579 181.587C145.115 182.205 144.812 182.929 144.698 183.693C144.225 186.412 145.053 187.358 145.542 187.713C146.04 187.951 146.586 188.072 147.138 188.067L149.089 190.136C149.089 190.136 151.512 189.486 152.576 188.245C153.163 187.654 153.538 186.885 153.64 186.058L152.281 183.812C152.281 183.812 151.63 181.278 150.271 180.274C149.948 179.982 149.548 179.788 149.119 179.715C148.69 179.642 148.249 179.692 147.848 179.86" stroke="#263238" stroke-width="0.743068" stroke-miterlimit="10"/>
<path d="M91.957 4.12439C98.2493 3.19941 104.605 2.77588 110.964 2.8578C119.603 2.8578 125.851 4.47904 130.022 7.71307C132.13 9.35491 133.825 11.4667 134.971 13.8799C136.118 16.293 136.684 18.9408 136.626 21.6118C136.626 27.5226 134.65 32.5129 130.943 35.8399C126.13 40.1969 118.952 42.215 110.677 42.215C109.073 42.2239 107.47 42.1195 105.881 41.9026V63.4178H91.957V4.12439ZM105.915 31.4068C107.455 31.6872 109.02 31.8061 110.584 31.7614C118.066 31.7614 122.685 28.1136 122.685 22.0171C122.685 16.4863 118.758 13.2016 111.657 13.2016C109.733 13.1594 107.809 13.3093 105.915 13.6492V31.4068Z" fill="#263238"/>
<path d="M169.211 63.4178L168.367 59.086H168.063C165.116 62.5565 160.463 64.3973 155.143 64.3973C145.939 64.3973 140.527 58.0221 140.527 51.0474C140.527 39.6818 151.065 34.2946 167.066 34.3115V33.7542C167.066 31.4405 165.774 28.122 158.791 28.1389C154.438 28.1999 150.166 29.3216 146.345 31.4067L143.752 22.7095C146.902 20.97 153.041 18.7999 161.333 18.7999C176.388 18.7999 181.151 27.3874 181.151 37.6299V52.829C181.084 56.3643 181.324 59.8987 181.868 63.3924L169.211 63.4178ZM167.522 42.7807C160.125 42.7807 154.409 44.4695 154.409 49.6626C154.409 53.1752 156.79 54.8809 159.99 54.8809C161.571 54.8985 163.118 54.4266 164.419 53.5302C165.721 52.6337 166.713 51.3564 167.26 49.8737C167.455 49.1155 167.543 48.334 167.522 47.5516V42.7807Z" fill="#263238"/>
<path d="M236.053 0.113527V50.3888C236.053 55.337 236.23 60.5215 236.425 63.4178H223.927L223.336 57.0257H223.142C220.297 61.9232 214.816 64.3973 208.982 64.3973C198.317 64.3973 189.679 55.5565 189.679 41.9955C189.611 27.3368 199.153 18.8 209.944 18.8C215.534 18.8 219.815 20.7168 221.833 23.7313H222.019V0.0881958L236.053 0.113527ZM221.994 38.3055C222.011 37.4796 221.949 36.6539 221.808 35.8399C221.428 33.9619 220.408 32.2741 218.922 31.0651C217.436 29.856 215.576 29.2008 213.66 29.2114C207.217 29.2114 203.958 34.7253 203.958 41.5986C203.958 48.9449 207.707 53.5806 213.558 53.5806C215.457 53.6016 217.304 52.9658 218.787 51.7809C220.271 50.5961 221.299 48.9349 221.698 47.0788C221.917 46.0723 222.016 45.0434 221.994 44.0136V38.3055Z" fill="#263238"/>
<path d="M258.168 45.9641C258.581 51.5962 264.349 54.2645 270.91 54.2645C275.131 54.3267 279.335 53.7021 283.356 52.4153L285.256 61.5938C280.009 63.5114 274.452 64.4418 268.866 64.3381C253.549 64.3381 244.75 55.7337 244.75 42.1305C244.75 31.0436 251.919 18.783 267.549 18.783C282.199 18.783 287.738 29.7602 287.738 40.5769C287.765 42.3801 287.595 44.1808 287.232 45.9472L258.168 45.9641ZM274.676 36.6757C274.676 33.4079 273.181 27.8265 266.789 27.8265C260.878 27.8265 258.438 33.0702 258.049 36.6757H274.676Z" fill="#263238"/>
<path d="M296.123 0.113464H310.199V63.4431H296.123V0.113464Z" fill="#263238"/>
<path d="M365.93 63.4178L365.085 59.086H364.806C361.86 62.5565 357.207 64.3973 351.887 64.3973C342.683 64.3973 337.271 58.0221 337.271 51.0474C337.271 39.6818 347.809 34.2946 363.81 34.3115V33.7542C363.81 31.4405 362.518 28.122 355.535 28.1389C351.174 28.1958 346.892 29.3176 343.063 31.4067L340.471 22.7095C343.621 20.97 349.759 18.7999 358.051 18.7999C373.107 18.7999 377.861 27.3874 377.861 37.6299V52.829C377.796 56.3646 378.039 59.899 378.587 63.3924L365.93 63.4178ZM364.241 42.7807C356.844 42.7807 351.127 44.4695 351.127 49.6626C351.127 53.1752 353.508 54.8809 356.709 54.8809C358.289 54.8985 359.836 54.4266 361.138 53.5302C362.439 52.6337 363.432 51.3564 363.979 49.8737C364.173 49.1155 364.262 48.334 364.241 47.5516V42.7807Z" fill="#F2C52B"/>
<path d="M403.454 7.66239C403.454 11.4453 400.583 14.4175 395.897 14.4175C391.447 14.4175 388.568 11.4199 388.585 7.66239C388.601 3.90483 391.515 0.907227 396.024 0.907227C400.533 0.907227 403.404 3.76973 403.454 7.66239ZM388.981 63.3925V19.7795H403.057V63.4178L388.981 63.3925Z" fill="#F2C52B"/>
<path d="M461.962 191.208H491.719V234.433" stroke="#F2C52B" stroke-width="4.22197" stroke-miterlimit="10"/>
<path d="M491.719 246.913C495.165 246.913 497.959 244.119 497.959 240.673C497.959 237.227 495.165 234.433 491.719 234.433C488.273 234.433 485.479 237.227 485.479 240.673C485.479 244.119 488.273 246.913 491.719 246.913Z" stroke="#F2C52B" stroke-width="4.22197" stroke-miterlimit="10"/>
<path d="M36.0581 175.19H6.31006V103.738" stroke="#F2C52B" stroke-width="4.22197" stroke-miterlimit="10"/>
<path d="M6.31015 97.7678C9.75645 97.7678 12.5502 94.974 12.5502 91.5277C12.5502 88.0814 9.75645 85.2876 6.31015 85.2876C2.86385 85.2876 0.0700684 88.0814 0.0700684 91.5277C0.0700684 94.974 2.86385 97.7678 6.31015 97.7678Z" fill="#F2C52B"/>
<path d="M27.7745 141.06C31.2208 141.06 34.0146 138.266 34.0146 134.82C34.0146 131.373 31.2208 128.58 27.7745 128.58C24.3282 128.58 21.5344 131.373 21.5344 134.82C21.5344 138.266 24.3282 141.06 27.7745 141.06Z" fill="#F2C52B"/>
<path d="M475.025 220.315C478.471 220.315 481.265 217.521 481.265 214.075C481.265 210.628 478.471 207.835 475.025 207.835C471.579 207.835 468.785 210.628 468.785 214.075C468.785 217.521 471.579 220.315 475.025 220.315Z" fill="#F2C52B"/>
<path d="M224.113 224.165H31.9966V230.118H224.113V224.165Z" fill="#263238" stroke="#263238" stroke-width="0.624852" stroke-linecap="round" stroke-linejoin="round"/>
</g>
<defs>
<clipPath id="clip0_188_128">
<rect width="500" height="326.823" fill="white" transform="translate(0.0700684 0.113464)"/>
</clipPath>
</defs>
</svg>
