<svg width="32" height="33" viewBox="0 0 32 33" fill="none" xmlns="http://www.w3.org/2000/svg">
<path d="M10.4 3.16669H21.6C25.8667 3.16669 29.3334 6.63335 29.3334 10.9V22.1C29.3334 24.151 28.5186 26.118 27.0683 27.5683C25.618 29.0186 23.651 29.8334 21.6 29.8334H10.4C6.13335 29.8334 2.66669 26.3667 2.66669 22.1V10.9C2.66669 8.84901 3.48145 6.88201 4.93173 5.43173C6.38201 3.98145 8.34901 3.16669 10.4 3.16669ZM10.1334 5.83335C8.86031 5.83335 7.63942 6.33907 6.73924 7.23924C5.83907 8.13942 5.33335 9.36031 5.33335 10.6334V22.3667C5.33335 25.02 7.48002 27.1667 10.1334 27.1667H21.8667C23.1397 27.1667 24.3606 26.661 25.2608 25.7608C26.161 24.8606 26.6667 23.6397 26.6667 22.3667V10.6334C26.6667 7.98002 24.52 5.83335 21.8667 5.83335H10.1334ZM23 7.83335C23.442 7.83335 23.866 8.00895 24.1785 8.32151C24.4911 8.63407 24.6667 9.05799 24.6667 9.50002C24.6667 9.94205 24.4911 10.366 24.1785 10.6785C23.866 10.9911 23.442 11.1667 23 11.1667C22.558 11.1667 22.1341 10.9911 21.8215 10.6785C21.5089 10.366 21.3334 9.94205 21.3334 9.50002C21.3334 9.05799 21.5089 8.63407 21.8215 8.32151C22.1341 8.00895 22.558 7.83335 23 7.83335ZM16 9.83335C17.7681 9.83335 19.4638 10.5357 20.7141 11.786C21.9643 13.0362 22.6667 14.7319 22.6667 16.5C22.6667 18.2681 21.9643 19.9638 20.7141 21.2141C19.4638 22.4643 17.7681 23.1667 16 23.1667C14.2319 23.1667 12.5362 22.4643 11.286 21.2141C10.0357 19.9638 9.33335 18.2681 9.33335 16.5C9.33335 14.7319 10.0357 13.0362 11.286 11.786C12.5362 10.5357 14.2319 9.83335 16 9.83335ZM16 12.5C14.9392 12.5 13.9217 12.9214 13.1716 13.6716C12.4214 14.4217 12 15.4392 12 16.5C12 17.5609 12.4214 18.5783 13.1716 19.3284C13.9217 20.0786 14.9392 20.5 16 20.5C17.0609 20.5 18.0783 20.0786 18.8284 19.3284C19.5786 18.5783 20 17.5609 20 16.5C20 15.4392 19.5786 14.4217 18.8284 13.6716C18.0783 12.9214 17.0609 12.5 16 12.5Z" fill="white"/>
</svg>
