<svg width="64" height="66" viewBox="0 0 64 66" fill="none" xmlns="http://www.w3.org/2000/svg">
<g clip-path="url(#clip0_184_104)">
<path d="M33.2213 33.1604C36.379 33.1604 39.535 33.1882 42.6927 33.1522C44.3588 33.1348 45.9745 32.5783 47.298 31.566C48.6214 30.5536 49.5815 29.1399 50.0344 27.5364C50.2414 26.7913 50.347 26.0216 50.3482 25.2482C50.3722 19.4734 50.3754 13.7044 50.358 7.94154C50.358 4.00589 47.7773 0.892351 43.9217 0.137256C43.4539 0.0499604 42.9789 0.00727459 42.5031 0.00977248C36.325 0.00105566 30.147 0.00105566 23.9689 0.00977248C19.507 0.00977248 16.0568 3.46654 16.0502 7.9301C16.0437 13.6985 16.0437 19.4674 16.0502 25.2368C16.0502 29.684 19.422 33.1065 23.8741 33.1604C26.9893 33.198 30.1061 33.1604 33.2213 33.1604ZM32.3109 25.7811C31.984 25.7811 31.6572 25.7811 31.3303 25.7811C30.5131 25.7663 30.1192 25.227 30.3725 24.4392C32.105 19.0359 33.8402 13.6336 35.5781 8.23246C35.753 7.69147 36.0357 7.47573 36.598 7.47083C37.6309 7.46211 38.666 7.46211 39.7033 7.47083C40.2737 7.47083 40.5434 7.67513 40.7199 8.22756C42.4633 13.6418 44.2067 19.0571 45.95 24.4735C46.1854 25.2057 45.7866 25.7614 45.0282 25.7811C44.3745 25.7958 43.7207 25.7925 43.0669 25.7811C42.5488 25.7729 42.271 25.562 42.0977 25.0668C41.9098 24.5275 41.7218 23.9898 41.5551 23.4439C41.5487 23.4013 41.534 23.3605 41.5118 23.3237C41.4896 23.2868 41.4604 23.2548 41.4258 23.2293C41.3911 23.2037 41.3518 23.1853 41.3101 23.175C41.2683 23.1647 41.225 23.1628 41.1825 23.1693C39.1819 23.1693 37.1831 23.1693 35.1842 23.1824C35.1141 23.1954 35.0481 23.2247 34.9913 23.2679C34.9346 23.311 34.8887 23.3668 34.8573 23.4308C34.6498 23.975 34.4732 24.5324 34.2918 25.0881C34.2364 25.2938 34.1127 25.4746 33.9411 25.6008C33.7694 25.727 33.56 25.7911 33.3471 25.7827C32.9925 25.7892 32.6525 25.7811 32.3109 25.7811ZM25.3696 16.6284V24.6288C25.3696 25.4624 25.0509 25.7729 24.2026 25.7729C23.6731 25.7729 23.1419 25.7729 22.6107 25.7729C21.7837 25.7729 21.4519 25.4362 21.4503 24.6043C21.4503 23.2575 21.4503 21.9108 21.4503 20.564C21.4503 16.5772 21.4503 12.5909 21.4503 8.6051C21.4503 7.81732 21.7772 7.49208 22.5666 7.48717C23.1109 7.48717 23.6551 7.48717 24.201 7.48717C25.0836 7.48717 25.3696 7.7781 25.3696 8.66558V16.6284Z" fill="#F2C52B"/>
<path d="M18.9329 44.9411C19.1617 44.3037 19.3399 43.6598 19.6194 43.0616C20.8076 40.5054 22.8882 39.188 25.6438 38.9756C27.081 38.8751 28.5237 38.88 29.9603 38.9903C32.2174 39.1537 34.3928 38.8775 36.4586 37.9639C39.2477 36.7195 42.3499 36.3551 45.3514 36.9195C47.9371 37.3788 50.4328 38.093 52.7063 39.4528C53.0662 39.6453 53.4086 39.869 53.7294 40.1213C54.1053 40.4482 54.4632 40.4318 54.9192 40.3272C56.6926 39.9186 58.4708 39.528 60.2588 39.1946C61.2477 39.0115 62.0469 39.5411 62.395 40.5021C63.7688 44.1863 64.2689 48.1389 63.8562 52.0492C63.6012 54.4043 63.2678 56.7432 62.4424 58.979C61.6726 61.0547 60.4386 62.7529 58.4267 63.8136C57.683 64.2042 57.0145 64.0915 56.3379 63.6159C55.8665 63.3014 55.3396 63.0795 54.7852 62.9621C53.0495 62.5715 51.2843 62.6172 49.5551 62.9196C47.3225 63.3086 45.1112 63.8202 42.8933 64.2892C40.0591 64.896 37.1743 65.2364 34.2767 65.3058C31.0471 65.3777 28.012 64.572 25.0963 63.2203C18.9411 60.3683 12.9575 57.1828 7.03119 53.8879C5.63165 53.1355 4.2821 52.2937 2.99094 51.3676C1.53612 50.3271 0.516944 48.7858 0.1291 47.0397C-0.586769 43.7873 1.79619 40.5969 5.12057 40.3272C6.82403 40.2005 8.53321 40.4806 10.1071 41.1444C12.9592 42.3114 15.772 43.5764 18.606 44.8006C18.7221 44.8464 18.8463 44.9019 18.9329 44.9411ZM59.1622 43.3166C57.7402 43.6679 56.3461 43.9703 54.9781 44.3642C54.5503 44.5015 54.0968 44.539 53.6523 44.4739C53.2077 44.4087 52.7841 44.2426 52.4137 43.9883C52.1751 43.833 51.9381 43.6745 51.706 43.5061C49.0762 41.5923 46.0542 40.8535 42.8802 40.5838C41.0644 40.4286 39.3924 41.0137 37.7449 41.6789C35.2769 42.6737 32.6143 43.0913 29.9603 42.8998C28.5912 42.8099 27.2178 42.805 25.8481 42.8851C24.4229 42.9652 23.4586 43.7627 22.983 45.1226C22.9053 45.3122 22.877 45.5184 22.9007 45.7219C22.9245 45.9254 22.9994 46.1196 23.1186 46.2863C23.5027 46.852 24.0293 47.3064 24.6452 47.6036C25.2597 47.8913 25.8726 48.1854 26.4937 48.46C29.1316 49.6303 31.794 50.0045 34.5415 48.7869C35.5221 48.3522 36.6401 48.8703 37.0487 49.8427C37.2534 50.3124 37.2641 50.844 37.0786 51.3216C36.8931 51.7992 36.5263 52.1841 36.0582 52.3924C34.2081 53.2417 32.1709 53.6018 30.1417 53.4384C27.8797 53.275 25.7892 52.5117 23.7675 51.5768C19.3546 49.5518 14.976 47.4826 10.5729 45.4511C9.18536 44.7834 7.69208 44.3625 6.16006 44.2073C5.34285 44.1354 4.67928 44.3871 4.21184 45.0621C3.76892 45.7044 3.87189 46.3941 4.27722 46.9776C4.68255 47.5611 5.14345 48.1609 5.71549 48.5614C6.81766 49.3069 7.95843 49.9938 9.13304 50.6191C14.9139 53.8127 20.7373 56.9197 26.7356 59.6982C28.9289 60.7148 31.2073 61.3636 33.6442 61.4192C36.8672 61.4928 40.0086 60.9289 43.1237 60.2065C46.0134 59.5347 48.9014 58.8695 51.8858 58.8254C53.7049 58.7976 55.5011 58.9529 57.2139 59.6295C57.446 59.7211 57.5899 59.6671 57.6896 59.4841C58.0883 58.7486 58.5999 58.0442 58.8418 57.258C59.8353 54.126 60.2236 50.8334 59.9859 47.5562C59.8705 46.1167 59.5942 44.6946 59.1622 43.3166Z" fill="#0F1F2E"/>
<path d="M36.1582 19.2467H40.1478C39.494 17.207 38.8402 15.1967 38.1979 13.188H38.1113C37.4641 15.1901 36.8168 17.1988 36.1582 19.2467Z" fill="#F2C52B"/>
</g>
<defs>
<clipPath id="clip0_184_104">
<rect width="64" height="65.3173" fill="white"/>
</clipPath>
</defs>
</svg>
