<svg width="64" height="65" viewBox="0 0 64 65" fill="none" xmlns="http://www.w3.org/2000/svg">
<g clip-path="url(#clip0_184_105)">
<path d="M26.1092 6.08894C26.1092 5.24578 26.129 4.44971 26.1092 3.6582C26.0075 0.180714 26.2809 -0.0897067 29.769 0.0120807C29.9832 0.0120807 30.199 0.0120807 30.4147 0.0120807C31.4614 0.0242345 32.1785 0.73219 32.1831 1.77893C32.1831 3.19332 32.1831 4.60922 32.1831 6.08286H32.6388C37.3433 6.08286 42.0483 6.08286 46.7539 6.08286C49.0973 6.07111 51.3881 6.77736 53.3182 8.1066C55.2482 9.43583 56.7248 11.3243 57.5494 13.5179C58.0274 14.7461 58.2771 16.0512 58.2862 17.3691C58.2984 20.1037 58.3121 22.8383 58.2862 25.5638C58.2536 27.5646 57.9786 29.554 57.4674 31.4887C57.4179 31.7153 57.3214 31.9291 57.1842 32.1161C57.0471 32.3032 56.8722 32.4594 56.671 32.5748C56.4697 32.6901 56.2466 32.762 56.0158 32.7859C55.7851 32.8097 55.5519 32.785 55.3314 32.7132C54.435 32.4488 53.5463 32.1556 52.6682 31.8412C52.2882 31.7189 51.968 31.4583 51.771 31.1111C51.574 30.7639 51.5147 30.3554 51.6047 29.9665C52.1866 27.598 52.258 25.1916 52.2261 22.7714C52.2048 21.0775 52.2261 19.3821 52.2261 17.6882C52.2185 14.5191 49.8485 12.1597 46.6733 12.1582H11.6038C8.459 12.1582 6.07534 14.5358 6.07382 17.6714C6.07382 19.9852 6.06167 22.299 6.07382 24.6143C6.13459 35.1227 13.6365 44.2243 23.9337 46.3147C26.0697 46.7492 28.2255 46.7796 30.3904 46.7705C31.4538 46.7705 32.1679 47.4845 32.1785 48.5556C32.1785 48.8336 32.1785 49.1116 32.1785 49.3896C32.1785 49.9852 32.1891 50.5792 32.1785 51.1732C32.1749 51.6027 32.0061 52.0143 31.7071 52.3226C31.4081 52.631 31.0019 52.8124 30.5727 52.8291C26.9767 52.94 23.4324 52.6408 19.9701 51.5636C10.083 48.4857 2.51886 40.1118 0.548437 30.0181C0.185157 28.1818 0.00147889 26.3145 0 24.4426C0 22.179 0 19.9153 0 17.6517C0.0167114 12.1688 3.66435 7.58385 9.01199 6.37911C9.87612 6.19286 10.7578 6.10016 11.6418 6.10261C16.3088 6.07527 20.9758 6.08894 25.6428 6.08894H26.1092Z" fill="#0F1F2E"/>
<path d="M63.9954 51.7353C63.9863 52.191 63.728 52.3323 63.4318 52.4478C61.8214 53.0813 60.2247 53.7467 58.6022 54.3407C56.1714 55.2325 54.5246 56.8702 53.6268 59.3025C53.0191 60.9478 52.3354 62.5657 51.6913 64.1974C51.5789 64.48 51.4102 64.6775 51.0836 64.679C50.757 64.6805 50.5807 64.4845 50.4759 64.2004C50.4546 64.1412 50.4288 64.0835 50.406 64.0257C49.7983 62.4761 49.142 60.9402 48.5738 59.3739C47.6532 56.8383 45.9289 55.1717 43.3964 54.2663C41.8164 53.7011 40.2729 53.0357 38.7096 52.422C38.4057 52.305 38.1976 52.1272 38.2037 51.7915C38.2098 51.4557 38.4407 51.2901 38.7324 51.1838C40.5174 50.4789 42.3056 49.7816 44.083 49.0569C45.0531 48.678 45.9334 48.1009 46.6677 47.3624C47.402 46.6239 47.9741 45.7403 48.3475 44.7682C49.0402 43.059 49.7148 41.3423 50.3908 39.6302C50.4243 39.5481 50.4546 39.4646 50.4865 39.3825C50.5929 39.1151 50.7661 38.9268 51.076 38.9268C51.3859 38.9268 51.5773 39.1136 51.6837 39.3977C52.2625 40.8653 52.8504 42.3298 53.4262 43.8034C53.8364 44.8532 54.2588 45.8893 54.9834 46.7766C55.9998 48.0208 57.3154 48.7956 58.7997 49.3486C60.3614 49.9304 61.9034 50.5639 63.4546 51.1716C63.7645 51.2932 64.006 51.4451 63.9954 51.7353Z" fill="#F2C52B"/>
<path d="M19.4125 31.5874C18.4503 31.585 17.5103 31.297 16.7118 30.76C15.9133 30.223 15.2921 29.4611 14.927 28.5708C14.5618 27.6805 14.469 26.7019 14.6605 25.7588C14.8519 24.8158 15.3189 23.9507 16.0023 23.2733C16.6857 22.5959 17.5548 22.1365 18.4995 21.9533C19.4442 21.7702 20.422 21.8715 21.309 22.2445C22.1961 22.6174 22.9525 23.2453 23.4825 24.0484C24.0125 24.8516 24.2922 25.794 24.2862 26.7563C24.2781 28.0425 23.7607 29.2731 22.8473 30.1786C21.9338 31.084 20.6987 31.5906 19.4125 31.5874Z" fill="#0F1F2E"/>
<path d="M34.0016 26.7198C34.0016 25.7573 34.2873 24.8164 34.8226 24.0164C35.3579 23.2164 36.1186 22.5934 37.0083 22.2261C37.8981 21.8589 38.8768 21.764 39.8205 21.9536C40.7642 22.1432 41.6304 22.6086 42.3093 23.2909C42.9882 23.9733 43.4493 24.8417 43.6341 25.7864C43.8189 26.731 43.7192 27.7093 43.3475 28.5972C42.9758 29.485 42.3489 30.2426 41.5463 30.7738C40.7436 31.3051 39.8013 31.5861 38.8388 31.5813C37.5536 31.5749 36.3233 31.0599 35.4169 30.1489C34.5104 29.2378 34.0016 28.005 34.0016 26.7198Z" fill="#0F1F2E"/>
</g>
<defs>
<clipPath id="clip0_184_105">
<rect width="64" height="64.6791" fill="white"/>
</clipPath>
</defs>
</svg>
