<svg width="32" height="33" viewBox="0 0 32 33" fill="none" xmlns="http://www.w3.org/2000/svg">
<path d="M25.4 7.04676C24.1774 5.81223 22.7214 4.83338 21.1167 4.16724C19.512 3.5011 17.7908 3.161 16.0533 3.16676C8.77334 3.16676 2.84 9.10009 2.84 16.3801C2.84 18.7134 3.45334 20.9801 4.6 22.9801L2.73334 29.8334L9.73334 27.9934C11.6667 29.0468 13.84 29.6068 16.0533 29.6068C23.3333 29.6068 29.2667 23.6734 29.2667 16.3934C29.2667 12.8601 27.8933 9.54009 25.4 7.04676ZM16.0533 27.3668C14.08 27.3668 12.1467 26.8334 10.4533 25.8334L10.0533 25.5934L5.89334 26.6868L7 22.6334L6.73334 22.2201C5.63673 20.4695 5.05457 18.4458 5.05334 16.3801C5.05334 10.3268 9.98667 5.39343 16.04 5.39343C18.9733 5.39343 21.7333 6.54009 23.8 8.62009C24.8235 9.63858 25.6346 10.8501 26.1862 12.1845C26.7378 13.5189 27.0189 14.9495 27.0133 16.3934C27.04 22.4468 22.1067 27.3668 16.0533 27.3668ZM22.08 19.1534C21.7467 18.9934 20.12 18.1934 19.8267 18.0734C19.52 17.9668 19.3067 17.9134 19.08 18.2334C18.8533 18.5668 18.2267 19.3134 18.04 19.5268C17.8533 19.7534 17.6533 19.7801 17.32 19.6068C16.9867 19.4468 15.92 19.0868 14.6667 17.9668C13.68 17.0868 13.0267 16.0068 12.8267 15.6734C12.64 15.3401 12.8 15.1668 12.9733 14.9934C13.12 14.8468 13.3067 14.6068 13.4667 14.4201C13.6267 14.2334 13.6933 14.0868 13.8 13.8734C13.9067 13.6468 13.8533 13.4601 13.7733 13.3001C13.6933 13.1401 13.0267 11.5134 12.76 10.8468C12.4933 10.2068 12.2133 10.2868 12.0133 10.2734H11.3733C11.1467 10.2734 10.8 10.3534 10.4933 10.6868C10.2 11.0201 9.34667 11.8201 9.34667 13.4468C9.34667 15.0734 10.5333 16.6468 10.6933 16.8601C10.8533 17.0868 13.0267 20.4201 16.3333 21.8468C17.12 22.1934 17.7333 22.3934 18.2133 22.5401C19 22.7934 19.72 22.7534 20.2933 22.6734C20.9333 22.5801 22.2533 21.8734 22.52 21.1001C22.8 20.3268 22.8 19.6734 22.7067 19.5268C22.6133 19.3801 22.4133 19.3134 22.08 19.1534Z" fill="white"/>
</svg>
