<svg width="64" height="61" viewBox="0 0 64 61" fill="none" xmlns="http://www.w3.org/2000/svg">
<g clip-path="url(#clip0_184_106)">
<path d="M24.9284 30.4519C24.9284 38.1665 24.9284 45.8817 24.9284 53.5975C24.9141 55.2868 25.494 56.9274 26.5667 58.2325C27.6394 59.5377 29.1366 60.4243 30.7967 60.7375C31.8605 60.9385 32.9763 60.9107 34.0695 60.9107C38.3334 60.9229 41.537 57.7141 41.5422 53.4502C41.5422 50.6654 41.5422 47.8823 41.5422 45.1009C41.5422 32.5396 41.5422 19.9784 41.5422 7.41715C41.5422 3.93812 39.321 0.997923 35.9875 0.242515C34.8405 -0.0173727 33.6138 0.0120715 32.4236 0.00514119C28.1337 -0.019115 24.9284 3.19657 24.9267 7.48299C24.9267 15.1376 24.9272 22.7938 24.9284 30.4519ZM56.4112 6.91297H55.8187C53.0465 6.91297 50.2784 6.91297 47.5144 6.91297C46.7676 6.91297 46.3934 7.28547 46.3882 8.02182C46.3882 8.62649 46.3882 9.23463 46.3882 9.83757C46.3882 10.7229 46.7347 11.0642 47.6149 11.0642H56.4268C55.2972 12.1887 54.2628 13.2109 53.2354 14.2435C52.6913 14.7893 52.6983 15.3056 53.2458 15.8548C53.7032 16.314 54.1606 16.7731 54.6319 17.2219C55.1412 17.7104 55.6541 17.7174 56.1496 17.2219C58.6411 14.7385 61.1285 12.2516 63.6118 9.76134C64.1316 9.24157 64.1316 8.72179 63.6118 8.20202C61.1296 5.71056 58.6422 3.22371 56.1496 0.74149C55.6558 0.249436 55.1222 0.259831 54.6267 0.74149C54.1831 1.17464 53.75 1.61819 53.3151 2.06C52.6654 2.71665 52.6706 3.16538 53.3289 3.82377L56.4112 6.91297ZM56.3904 49.836H47.5542C46.759 49.836 46.4003 50.2016 46.3969 51.0038C46.3969 51.5808 46.3969 52.156 46.3969 52.7364C46.3969 53.6581 46.7278 53.9925 47.6391 53.9925H56.3956C56.2224 54.1762 56.1219 54.2905 56.0145 54.398C55.0771 55.337 54.1346 56.2709 53.2025 57.2134C52.7173 57.7055 52.7208 58.2408 53.2025 58.7329C53.6841 59.2249 54.1589 59.6927 54.6474 60.1623C55.136 60.6318 55.6645 60.6422 56.1652 60.1415C58.6566 57.6593 61.1441 55.1724 63.6274 52.681C64.1247 52.182 64.1316 51.6553 63.6396 51.1615C61.147 48.6573 58.6491 46.1601 56.1461 43.6698C55.6558 43.1812 55.1256 43.2002 54.6249 43.6923C54.1513 44.1543 53.6836 44.6244 53.2215 45.1026C52.7191 45.6224 52.7173 46.1422 53.2215 46.6516C54.145 47.5837 55.0771 48.5054 56.0058 49.4341C56.1149 49.5381 56.2172 49.6489 56.3904 49.836ZM56.4026 32.5275C56.2293 32.7181 56.1167 32.8324 56.0075 32.9416C55.0789 33.8685 54.1467 34.7903 53.2233 35.7137C52.7139 36.2335 52.7173 36.7533 53.2233 37.2731C53.6772 37.7351 54.1357 38.1937 54.5989 38.6487C55.1395 39.1789 55.6506 39.1876 56.1825 38.6487C58.6636 36.1746 61.1406 33.6976 63.6136 31.2177C64.1299 30.7014 64.1299 30.1816 63.6136 29.6584C61.1314 27.1669 58.644 24.6801 56.1513 22.1978C55.6558 21.7041 55.1291 21.711 54.6284 22.1978C54.1606 22.6483 53.7049 23.1092 53.2423 23.5718C52.6827 24.1401 52.6844 24.6512 53.2527 25.2195C54.1767 26.1435 55.1072 27.0676 56.0439 27.9916C56.1392 28.0869 56.2172 28.1926 56.3696 28.3554H55.8672C53.0708 28.3554 50.2738 28.3554 47.4763 28.3554C46.7642 28.3554 46.3847 28.7366 46.3795 29.4487C46.3795 30.0828 46.3795 30.717 46.3795 31.3546C46.3795 32.1481 46.7469 32.5085 47.549 32.5102C48.975 32.5102 50.4026 32.5102 51.8303 32.5102L56.4026 32.5275ZM3.83069 6.91297C2.93841 6.91297 2.04613 6.91297 1.15384 6.91297C0.377646 6.91297 0.00860251 7.28027 0.00340475 8.04088C0.00340475 8.675 0.00340475 9.31028 0.00340475 9.94672C0.00340475 10.69 0.377649 11.0694 1.114 11.0712C2.91242 11.0712 4.71142 11.0712 6.511 11.0712C7.24388 11.0712 7.61293 10.6883 7.61812 9.94326C7.61812 9.31145 7.61812 8.67616 7.61812 8.03742C7.61812 7.29587 7.24389 6.91816 6.50927 6.91469C5.61526 6.9095 4.72297 6.91297 3.83069 6.91297ZM16.2655 11.0712C17.1872 11.0712 18.1089 11.0712 19.0376 11.0712C19.6943 11.0712 20.0772 10.6779 20.0858 10.0195C20.0858 9.32646 20.0962 8.63343 20.0858 7.94039C20.0754 7.30973 19.6891 6.92163 19.0463 6.91816C17.1982 6.90892 15.3553 6.90892 13.5176 6.91816C12.8609 6.91816 12.478 7.31146 12.4694 7.96984C12.4607 8.62823 12.4694 9.29354 12.4694 9.95712C12.4694 10.694 12.8436 11.0642 13.5921 11.0677C14.4809 11.0712 15.3732 11.0677 16.2655 11.0677V11.0712ZM3.79085 32.5327C4.71085 32.5327 5.63258 32.5327 6.55431 32.5327C7.21963 32.5327 7.60773 32.1498 7.61812 31.4932C7.62852 30.8001 7.62852 30.1071 7.61812 29.4141C7.60773 28.7747 7.22829 28.3745 6.59936 28.3745C4.74203 28.3664 2.8847 28.3664 1.02737 28.3745C0.396708 28.3745 0.0172688 28.773 0.00687331 29.4141C-0.00352221 30.0551 0.00687331 30.7378 0.00687331 31.3996C0.00687331 32.162 0.381114 32.5241 1.15731 32.5275C2.03227 32.531 2.91069 32.5292 3.78911 32.5292L3.79085 32.5327ZM16.3157 28.3745C15.394 28.3745 14.474 28.3745 13.5436 28.3745C12.8505 28.3745 12.4676 28.7574 12.4607 29.4366C12.4538 30.1158 12.4607 30.7897 12.4607 31.4655C12.4607 32.1412 12.8575 32.5223 13.547 32.5258C15.3616 32.5258 17.1756 32.5258 18.9891 32.5258C19.6821 32.5258 20.0633 32.1446 20.072 31.4637C20.0806 30.7828 20.072 30.1106 20.072 29.4348C20.072 28.7591 19.6769 28.3814 18.9856 28.3762C18.1003 28.3693 17.2063 28.3745 16.3157 28.3745ZM3.78911 53.9891C4.71085 53.9891 5.63085 53.9891 6.55259 53.9891C7.2179 53.9891 7.60599 53.6044 7.61639 52.9495C7.62678 52.2565 7.62678 51.5635 7.61639 50.8704C7.61639 50.2328 7.22482 49.8309 6.59763 49.8309C4.7403 49.8228 2.88297 49.8228 1.02563 49.8309C0.394973 49.8309 0.0155345 50.2294 0.00513903 50.8704C-0.00525649 51.5115 0.00513903 52.1664 0.00513903 52.8144C0.00513903 53.6131 0.367252 53.9804 1.15558 53.9839C2.03227 53.9925 2.91069 53.9891 3.78911 53.9891ZM16.2637 53.9891C17.1855 53.9891 18.1055 53.9891 19.0359 53.9891C19.6995 53.9891 20.0754 53.6027 20.0945 52.9495C20.1135 52.2963 20.0945 51.5964 20.0945 50.9189C20.0945 50.2415 19.7098 49.8447 19.0255 49.843C17.1982 49.8361 15.3697 49.8361 13.5401 49.843C12.8627 49.843 12.4884 50.2363 12.4815 50.9293C12.4815 51.5773 12.4815 52.2253 12.4815 52.8733C12.4815 53.6148 12.8523 53.9885 13.5938 53.9943C14.4705 53.9925 15.3645 53.9891 16.2568 53.9891H16.2637Z" fill="white"/>
<path d="M24.9266 30.4519V7.47778C24.9266 3.19136 28.1337 -0.0243139 32.4235 -5.77257e-05C33.6138 -5.77257e-05 34.8405 -0.0225822 35.9875 0.237306C39.321 0.992713 41.5317 3.93291 41.5421 7.41194C41.5421 19.9732 41.5421 32.5344 41.5421 45.0957C41.5421 47.8782 41.5421 50.6613 41.5421 53.445C41.5421 57.7089 38.3334 60.9177 34.0695 60.9055C32.9762 60.9055 31.8605 60.9385 30.7966 60.7323C29.1369 60.4187 27.6401 59.5319 26.5677 58.2268C25.4954 56.9217 24.9158 55.2814 24.9301 53.5923C24.922 45.8811 24.9209 38.1677 24.9266 30.4519Z" fill="#0F1F2E"/>
<path d="M56.4112 6.91299L53.3324 3.83765C52.674 3.17926 52.6688 2.73051 53.3185 2.07386C53.7534 1.63205 54.1848 1.18851 54.6301 0.755368C55.1256 0.271977 55.6593 0.261581 56.1531 0.755368C58.6445 3.23874 61.1319 5.72558 63.6153 8.21588C64.1351 8.73566 64.1351 9.25543 63.6153 9.77521C61.1331 12.2655 58.6457 14.7524 56.1531 17.2357C55.6575 17.7295 55.1447 17.7226 54.6353 17.2357C54.1658 16.787 53.7084 16.3279 53.2493 15.8687C52.7018 15.3195 52.6948 14.8032 53.2388 14.2574C54.2663 13.2179 55.3006 12.2026 56.4303 11.0781H47.6183C46.733 11.0781 46.3934 10.7316 46.3917 9.85144C46.3917 9.24677 46.3917 8.63864 46.3917 8.0357C46.3917 7.29935 46.7711 6.92684 47.5178 6.92684C50.29 6.92684 53.0581 6.92684 55.8221 6.92684L56.4112 6.91299Z" fill="#F2C52B"/>
<path d="M56.3904 49.836C56.2172 49.6524 56.1149 49.538 56.0075 49.4306C55.0788 48.5019 54.1467 47.5802 53.2232 46.6481C52.7035 46.1283 52.7139 45.6085 53.2232 45.0991C53.6853 44.6244 54.1531 44.1543 54.6266 43.6888C55.1274 43.1967 55.6662 43.1777 56.1479 43.6663C58.6509 46.1577 61.1487 48.655 63.6413 51.158C64.1333 51.6518 64.1264 52.1785 63.6291 52.6775C61.1469 55.1689 58.6595 57.6558 56.1669 60.138C55.6662 60.6387 55.1568 60.6422 54.6492 60.1588C54.1415 59.6754 53.6789 59.2128 53.2042 58.7294C52.7295 58.246 52.7173 57.702 53.2042 57.2099C54.1363 56.2674 55.0788 55.3335 56.0162 54.3945C56.1236 54.287 56.2258 54.1727 56.3973 53.989H47.6409C46.7295 53.989 46.4003 53.6546 46.3986 52.7329C46.3986 52.156 46.3986 51.5807 46.3986 51.0003C46.3986 50.1981 46.7607 49.8343 47.556 49.8326H56.3922L56.3904 49.836Z" fill="#F2C52B"/>
<path d="M56.4026 32.5275H51.8337C50.4061 32.5275 48.9784 32.5275 47.5525 32.5275C46.7503 32.5275 46.3882 32.1654 46.383 31.3719C46.383 30.7377 46.383 30.1036 46.383 29.466C46.383 28.7539 46.7677 28.3727 47.4797 28.3727C50.2773 28.3727 53.0743 28.3727 55.8707 28.3727H56.3731C56.2276 28.2099 56.1427 28.1042 56.0474 28.0089C55.1176 27.0849 54.1872 26.1608 53.2562 25.2368C52.6879 24.6685 52.6862 24.1574 53.2458 23.5891C53.6997 23.1265 54.1554 22.6656 54.6319 22.2151C55.1326 21.73 55.6593 21.7231 56.1548 22.2151C58.6463 24.6985 61.1337 27.1854 63.6171 29.6757C64.1299 30.192 64.1299 30.7117 63.6171 31.235C61.1429 33.716 58.6659 36.1931 56.186 38.666C55.6541 39.1962 55.1464 39.1858 54.6024 38.666C54.1404 38.2121 53.6818 37.7536 53.2267 37.2904C52.7243 36.7706 52.7208 36.2508 53.2267 35.7311C54.1502 34.7989 55.0823 33.8772 56.011 32.9589C56.1167 32.8324 56.2224 32.7181 56.4026 32.5275Z" fill="#F2C52B"/>
<path d="M3.83071 6.91299C4.72299 6.91299 5.61527 6.91299 6.50929 6.91299C7.2439 6.91299 7.61294 7.29415 7.61814 8.0357C7.61814 8.66982 7.61814 9.30511 7.61814 9.94154C7.61814 10.6866 7.24389 11.0677 6.51101 11.0695C4.71259 11.0695 2.91359 11.0695 1.11401 11.0695C0.377662 11.0695 0.00861573 10.6883 0.00341797 9.94501C0.00341797 9.31204 0.00341797 8.67676 0.00341797 8.03917C0.00341797 7.27856 0.377659 6.91472 1.15386 6.91125C2.04614 6.90952 2.93842 6.91299 3.83071 6.91299Z" fill="#0F1F2E"/>
<path d="M16.2655 11.0677C15.3732 11.0677 14.4809 11.0677 13.5886 11.0677C12.8459 11.0677 12.4717 10.6975 12.4659 9.95711C12.4659 9.29353 12.4659 8.63169 12.4659 7.96984C12.4659 7.30799 12.8575 6.91989 13.5141 6.91816C15.3564 6.91123 17.1993 6.91123 19.0428 6.91816C19.6787 6.91816 20.065 7.30973 20.0824 7.94039C20.0945 8.63343 20.0927 9.32646 20.0824 10.0195C20.0737 10.6779 19.6908 11.059 19.0341 11.0712C18.1089 11.0729 17.182 11.0677 16.2655 11.0677Z" fill="#0F1F2E"/>
<path d="M3.78912 32.5292C2.9107 32.5292 2.03228 32.5292 1.15386 32.5292C0.377659 32.5292 0.00861573 32.1637 0.00341797 31.4014C0.00341797 30.7395 0.00341797 30.0776 0.00341797 29.4158C0.00341797 28.7539 0.393252 28.3762 1.02391 28.3762C2.88125 28.3682 4.73858 28.3682 6.59592 28.3762C7.22485 28.3762 7.60428 28.7747 7.61468 29.4158C7.62507 30.1088 7.62507 30.8019 7.61468 31.4949C7.60428 32.1498 7.21618 32.5344 6.55087 32.5344C5.63086 32.5344 4.7074 32.5292 3.78912 32.5292Z" fill="#0F1F2E"/>
<path d="M16.3157 28.3745C17.208 28.3745 18.102 28.3745 18.9943 28.3745C19.6873 28.3745 20.072 28.7539 20.0806 29.4331C20.0893 30.1123 20.0806 30.7863 20.0806 31.462C20.0806 32.1377 19.6873 32.5223 18.9977 32.5241C17.1832 32.5241 15.3691 32.5241 13.5557 32.5241C12.8627 32.5241 12.478 32.1412 12.4694 31.4637C12.4607 30.7863 12.4694 30.1106 12.4694 29.4348C12.4694 28.7591 12.8627 28.378 13.5522 28.3728C14.4722 28.3693 15.3922 28.3745 16.3157 28.3745Z" fill="#0F1F2E"/>
<path d="M3.78912 53.989C2.9107 53.989 2.03228 53.989 1.15386 53.989C0.365531 53.989 0.00515055 53.6183 0.00341797 52.8195C0.00341797 52.1716 0.00341797 51.5236 0.00341797 50.8756C0.00341797 50.2276 0.393252 49.836 1.02391 49.836C2.88125 49.8279 4.73858 49.8279 6.59592 49.836C7.22311 49.836 7.60601 50.2345 7.61468 50.8756C7.62507 51.5686 7.62507 52.2616 7.61468 52.9547C7.60428 53.6079 7.21618 53.9942 6.55087 53.9942C5.63086 53.9942 4.7074 53.989 3.78912 53.989Z" fill="#0F1F2E"/>
<path d="M16.2568 53.9891C15.3645 53.9891 14.4705 53.9891 13.5782 53.9891C12.8425 53.9891 12.4717 53.6154 12.4659 52.8681C12.4659 52.2201 12.4659 51.5721 12.4659 50.9241C12.4659 50.2311 12.8471 49.8412 13.5245 49.8378C15.3541 49.8308 17.1826 49.8308 19.0099 49.8378C19.7029 49.8378 20.072 50.2276 20.0789 50.9137C20.0858 51.5998 20.0789 52.2669 20.0789 52.9443C20.0789 53.6218 19.6839 53.9839 19.0203 53.9839C18.0985 53.996 17.182 53.9891 16.2568 53.9891Z" fill="#0F1F2E"/>
</g>
<defs>
<clipPath id="clip0_184_106">
<rect width="64" height="60.9056" fill="white"/>
</clipPath>
</defs>
</svg>
